<?xml version="1.0" encoding="iso-8859-1"?>
<!-- Generator: Adobe Illustrator 19.0.0, SVG Export Plug-In . SVG Version: 6.00 Build 0)  -->
<svg version="1.1" id="Layer_1" xmlns="http://www.w3.org/2000/svg" xmlns:xlink="http://www.w3.org/1999/xlink" x="0px" y="0px"
	 viewBox="0 0 512 512" style="enable-background:new 0 0 512 512;" xml:space="preserve">
<path style="fill:#A65A3A;" d="M159.421,344.618L8.241,503.756c10.988,10.988,28.796,10.988,39.784,0l127.309-127.309
	L159.421,344.618z"/>
<path style="fill:#D3754F;" d="M167.378,352.575L32.111,487.842c-10.988,10.988-21.675,18.11-23.87,15.914
	c-10.988-10.988-10.988-28.796,0-39.784l127.309-127.309L167.378,352.575z"/>
<rect x="143.9" y="300.572" transform="matrix(-0.7071 0.7071 -0.7071 -0.7071 545.313 431.5298)" style="fill:#D1F1FF;" width="78.768" height="56.263"/>
<path style="fill:#57676E;" d="M318.848,0.014v390.445C425.714,389.345,512,302.362,512,195.237S425.714,1.128,318.848,0.014z"/>
<path style="fill:#748993;" d="M318.848,0.014c88.221,1.35,159.394,88.243,159.394,195.223s-71.173,193.872-159.394,195.223
	c-0.686,0.011-1.384,0.011-2.082,0.011c-107.823,0-195.234-87.411-195.234-195.234S208.943,0.003,316.766,0.003
	C317.464,0.003,318.161,0.003,318.848,0.014z"/>
<path style="fill:#414D53;" d="M318.127,56.277v277.919c76.001-0.731,137.609-62.779,137.609-138.959
	C455.736,119.056,394.128,57.009,318.127,56.277z"/>
<path style="fill:#57676E;" d="M318.127,56.277c57.377,0.968,103.851,62.925,103.851,138.959s-46.474,137.992-103.851,138.959
	c-0.461,0.011-0.911,0.011-1.362,0.011c-76.631,0-138.971-62.34-138.971-138.971s62.34-138.971,138.971-138.971
	C317.216,56.266,317.666,56.266,318.127,56.277z"/>
<g>
</g>
<g>
</g>
<g>
</g>
<g>
</g>
<g>
</g>
<g>
</g>
<g>
</g>
<g>
</g>
<g>
</g>
<g>
</g>
<g>
</g>
<g>
</g>
<g>
</g>
<g>
</g>
<g>
</g>
</svg>
